#!OML:ASF H:\Punching\Project 1\Capture day 1\Session 1\female.ASF
:FULLY-SPECIFIED
:DEGREES
2508
root -4.21248 15.6584 7.21017 -172.096 194.652 -179.146
lowerback -7.9922 1.47852 0.908065
upperback -5.73162 1.87593 -1.92509
thorax -1.35602 0.870248 -2.36914
lowerneck -12.3353 4.59173 11.4946
upperneck 41.3383 5.35732 -4.63454
head 17.9608 3.32906 -3.25092
rclavicle -1.85367e-014 7.55382e-015
rhumerus -34.1999 -8.32698 -81.9684
rradius 23.2862
rwrist 18.6349
rhand -10.4084 -4.86817
rfingers 7.12502
rthumb 15.5903 -34.2598
lclavicle -1.85367e-014 7.55382e-015
lhumerus -46.1968 11.6314 70.7718
lradius 28.8936
lwrist -24.3923
lhand -2.6815 11.3015
lfingers 7.12502
lthumb 23.0196 39.9468
rfemur -2.50021 0.986719 20.6702
rtibia 34.2574
rfoot -20.5593 -4.08067
rtoes -20.633
lfemur -26.314 -1.94894 -25.6418
ltibia 21.8975
lfoot -3.3744 7.54696
ltoes 14.3437
2509
root -4.19734 15.6683 7.30928 -172.204 194.715 -178.876
lowerback -8.00423 1.47117 0.761941
upperback -5.76622 1.87366 -2.00288
thorax -1.38744 0.871095 -2.36799
lowerneck -12.3121 4.59687 11.4996
upperneck 41.2931 5.38236 -4.6732
head 17.9325 3.33402 -3.26422
rclavicle -3.598e-014 -1.11319e-014
rhumerus -34.3969 -9.21522 -81.3374
rradius 22.5744
rwrist 19.9269
rhand -10.0078 -4.97928
rfingers 7.12502
rthumb 15.9762 -34.3405
lclavicle -3.598e-014 -1.11319e-014
lhumerus -46.1375 11.4252 70.9092
lradius 28.9626
lwrist -24.3197
lhand -2.64339 11.3155
lfingers 7.12502
lthumb 23.0562 39.9563
rfemur -3.05394 0.704351 20.0789
rtibia 35.8215
rfoot -20.0448 -3.41315
rtoes -21.4943
lfemur -25.6924 -1.47257 -26.241
ltibia 21.488
lfoot -3.47137 7.03298
ltoes 14.2937
2510
root -4.18245 15.6781 7.40609 -172.283 194.772 -178.661
lowerback -8.01833 1.46621 0.658338
upperback -5.80193 1.87208 -2.05723
thorax -1.41833 0.871553 -2.36641
lowerneck -12.2984 4.60211 11.4907
upperneck 41.2368 5.41313 -4.71795
head 17.9003 3.33799 -3.27634
rclavicle -9.19379e-015 -1.39149e-014
rhumerus -34.5965 -10.0645 -80.6867
rradius 21.9186
rwrist 21.1658
rhand -9.62824 -5.06727
rfingers 7.12502
rthumb 16.3416 -34.3988
lclavicle -9.19379e-015 -1.39149e-014
lhumerus -46.058 11.2202 71.0675
lradius 29.0484
lwrist -24.2592
lhand -2.63397 11.3211
lfingers 7.12502
lthumb 23.0652 39.9607
rfemur -3.62367 0.463859 19.549
rtibia 37.3147
rfoot -19.4055 -2.74113
rtoes -22.1999
lfemur -25.1106 -1.09821 -26.7458
ltibia 21.1059
lfoot -3.58585 6.63666
ltoes 14.249
2511
root -4.16795 15.6878 7.50029 -172.337 194.831 -178.497
lowerback -8.02787 1.46561 0.591059
upperback -5.83879 1.87422 -2.0884
thorax -1.4524 0.873269 -2.36118
lowerneck -12.2899 4.6059 11.465
upperneck 41.1684 5.44714 -4.76539
head 17.8619 3.33997 -3.28563
rclavicle -4.47266e-015 -1.55052e-014
rhumerus -34.8002 -10.8518 -80.03
rradius 21.3299
rwrist 22.3268
rhand -9.28052 -5.13296
rfingers 7.12502
rthumb 16.6764 -34.4366
lclavicle -4.47266e-015 -1.55052e-014
lhumerus -45.9578 11.0213 71.2436
lradius 29.1509
lwrist -24.2102
lhand -2.64562 11.326
lfingers 7.12502
lthumb 23.054 39.9671
rfemur -4.21028 0.266435 19.0808
rtibia 38.7372
rfoot -18.6454 -2.0771
rtoes -22.751
lfemur -24.5641 -0.823642 -27.1599
ltibia 20.7502
lfoot -3.71589 6.3644
ltoes 14.2134
2512
root -4.15361 15.6976 7.59199 -172.371 194.884 -178.374
lowerback -8.03416 1.46379 0.550275
upperback -5.87217 1.87332 -2.09789
thorax -1.48466 0.873174 -2.34863
lowerneck -12.2897 4.6115 11.4295
upperneck 41.088 5.49 -4.82325
head 17.8196 3.3423 -3.29591
rclavicle -2.90723e-014 1.59028e-015
rhumerus -35 -11.5632 -79.3788
rradius 20.8168
rwrist 23.4076
rhand -8.9704 -5.17704
rfingers 7.12502
rthumb 16.9749 -34.4553
lclavicle -2.90723e-014 1.59028e-015
lhumerus -45.8359 10.8356 71.4367
lradius 29.2721
lwrist -24.1612
lhand -2.6872 11.3355
lfingers 7.12502
lthumb 23.0141 39.9815
rfemur -4.80845 0.0886168 18.6615
rtibia 40.0924
rfoot -17.7741 -1.42797
rtoes -23.2281
lfemur -24.0428 -0.616403 -27.5066
ltibia 20.4093
lfoot -3.84068 6.17036
ltoes 14.152
